<svg id="visual" viewBox="0 0 900 600" width="900" height="600" xmlns="http://www.w3.org/2000/svg" xmlns:xlink="http://www.w3.org/1999/xlink" version="1.1"><rect x="0" y="0" width="900" height="600" fill="#f2f2f2"></rect><path d="M0 238L30 241.3C60 244.7 120 251.3 180 251.5C240 251.7 300 245.3 360 225.3C420 205.3 480 171.7 540 150.8C600 130 660 122 720 136C780 150 840 186 870 204L900 222L900 0L870 0C840 0 780 0 720 0C660 0 600 0 540 0C480 0 420 0 360 0C300 0 240 0 180 0C120 0 60 0 30 0L0 0Z" fill="#fff" stroke-linecap="round" stroke-linejoin="miter"></path></svg>