<svg id="visual" viewBox="0 0 900 600" width="900" height="600" xmlns="http://www.w3.org/2000/svg" xmlns:xlink="http://www.w3.org/1999/xlink" version="1.1"><path d="M0 67L13.7 81C27.3 95 54.7 123 82 129C109.3 135 136.7 119 163.8 118C191 117 218 131 245.2 130C272.3 129 299.7 113 327 115C354.3 117 381.7 137 409 136C436.3 135 463.7 113 491 97C518.3 81 545.7 71 573 78C600.3 85 627.7 109 654.8 110C682 111 709 89 736.2 75C763.3 61 790.7 55 818 57C845.3 59 872.7 69 886.3 74L900 79L900 0L886.3 0C872.7 0 845.3 0 818 0C790.7 0 763.3 0 736.2 0C709 0 682 0 654.8 0C627.7 0 600.3 0 573 0C545.7 0 518.3 0 491 0C463.7 0 436.3 0 409 0C381.7 0 354.3 0 327 0C299.7 0 272.3 0 245.2 0C218 0 191 0 163.8 0C136.7 0 109.3 0 82 0C54.7 0 27.3 0 13.7 0L0 0Z" fill="#ffffff"></path><path d="M0 253L13.7 256C27.3 259 54.7 265 82 278C109.3 291 136.7 311 163.8 319C191 327 218 323 245.2 303C272.3 283 299.7 247 327 235C354.3 223 381.7 235 409 231C436.3 227 463.7 207 491 213C518.3 219 545.7 251 573 260C600.3 269 627.7 255 654.8 242C682 229 709 217 736.2 213C763.3 209 790.7 213 818 232C845.3 251 872.7 285 886.3 302L900 319L900 77L886.3 72C872.7 67 845.3 57 818 55C790.7 53 763.3 59 736.2 73C709 87 682 109 654.8 108C627.7 107 600.3 83 573 76C545.7 69 518.3 79 491 95C463.7 111 436.3 133 409 134C381.7 135 354.3 115 327 113C299.7 111 272.3 127 245.2 128C218 129 191 115 163.8 116C136.7 117 109.3 133 82 127C54.7 121 27.3 93 13.7 79L0 65Z" fill="#eaeaea"></path><path d="M0 313L13.7 319C27.3 325 54.7 337 82 349C109.3 361 136.7 373 163.8 377C191 381 218 377 245.2 364C272.3 351 299.7 329 327 314C354.3 299 381.7 291 409 288C436.3 285 463.7 287 491 305C518.3 323 545.7 357 573 365C600.3 373 627.7 355 654.8 342C682 329 709 321 736.2 316C763.3 311 790.7 309 818 318C845.3 327 872.7 347 886.3 357L900 367L900 317L886.3 300C872.7 283 845.3 249 818 230C790.7 211 763.3 207 736.2 211C709 215 682 227 654.8 240C627.7 253 600.3 267 573 258C545.7 249 518.3 217 491 211C463.7 205 436.3 225 409 229C381.7 233 354.3 221 327 233C299.7 245 272.3 281 245.2 301C218 321 191 325 163.8 317C136.7 309 109.3 289 82 276C54.7 263 27.3 257 13.7 254L0 251Z" fill="#dddddd"></path><path d="M0 547L13.7 543C27.3 539 54.7 531 82 531C109.3 531 136.7 539 163.8 535C191 531 218 515 245.2 508C272.3 501 299.7 503 327 503C354.3 503 381.7 501 409 505C436.3 509 463.7 519 491 528C518.3 537 545.7 545 573 545C600.3 545 627.7 537 654.8 538C682 539 709 549 736.2 544C763.3 539 790.7 519 818 520C845.3 521 872.7 543 886.3 554L900 565L900 365L886.3 355C872.7 345 845.3 325 818 316C790.7 307 763.3 309 736.2 314C709 319 682 327 654.8 340C627.7 353 600.3 371 573 363C545.7 355 518.3 321 491 303C463.7 285 436.3 283 409 286C381.7 289 354.3 297 327 312C299.7 327 272.3 349 245.2 362C218 375 191 379 163.8 375C136.7 371 109.3 359 82 347C54.7 335 27.3 323 13.7 317L0 311Z" fill="#eaeaea"></path><path d="M0 601L13.7 601C27.3 601 54.7 601 82 601C109.3 601 136.7 601 163.8 601C191 601 218 601 245.2 601C272.3 601 299.7 601 327 601C354.3 601 381.7 601 409 601C436.3 601 463.7 601 491 601C518.3 601 545.7 601 573 601C600.3 601 627.7 601 654.8 601C682 601 709 601 736.2 601C763.3 601 790.7 601 818 601C845.3 601 872.7 601 886.3 601L900 601L900 563L886.3 552C872.7 541 845.3 519 818 518C790.7 517 763.3 537 736.2 542C709 547 682 537 654.8 536C627.7 535 600.3 543 573 543C545.7 543 518.3 535 491 526C463.7 517 436.3 507 409 503C381.7 499 354.3 501 327 501C299.7 501 272.3 499 245.2 506C218 513 191 529 163.8 533C136.7 537 109.3 529 82 529C54.7 529 27.3 537 13.7 541L0 545Z" fill="#ffffff"></path></svg>