<svg id="visual" viewBox="0 0 900 600" width="900" height="600" xmlns="http://www.w3.org/2000/svg" xmlns:xlink="http://www.w3.org/1999/xlink" version="1.1"><rect x="0" y="0" width="900" height="600" fill="#001220"></rect><path d="M0 381L21.5 390C43 399 86 417 128.8 414.7C171.7 412.3 214.3 389.7 257.2 387C300 384.3 343 401.7 385.8 399.8C428.7 398 471.3 377 514.2 374.2C557 371.3 600 386.7 642.8 401.3C685.7 416 728.3 430 771.2 427.8C814 425.7 857 407.3 878.5 398.2L900 389L900 601L878.5 601C857 601 814 601 771.2 601C728.3 601 685.7 601 642.8 601C600 601 557 601 514.2 601C471.3 601 428.7 601 385.8 601C343 601 300 601 257.2 601C214.3 601 171.7 601 128.8 601C86 601 43 601 21.5 601L0 601Z" fill="#001220"></path><path d="M0 441L21.5 434.2C43 427.3 86 413.7 128.8 410.5C171.7 407.3 214.3 414.7 257.2 419.7C300 424.7 343 427.3 385.8 428C428.7 428.7 471.3 427.3 514.2 424.7C557 422 600 418 642.8 421.5C685.7 425 728.3 436 771.2 442C814 448 857 449 878.5 449.5L900 450L900 601L878.5 601C857 601 814 601 771.2 601C728.3 601 685.7 601 642.8 601C600 601 557 601 514.2 601C471.3 601 428.7 601 385.8 601C343 601 300 601 257.2 601C214.3 601 171.7 601 128.8 601C86 601 43 601 21.5 601L0 601Z" fill="#0a2f4a"></path><path d="M0 484L21.5 485.3C43 486.7 86 489.3 128.8 485.2C171.7 481 214.3 470 257.2 468.3C300 466.7 343 474.3 385.8 472.7C428.7 471 471.3 460 514.2 452.7C557 445.3 600 441.7 642.8 445.5C685.7 449.3 728.3 460.7 771.2 472.2C814 483.7 857 495.3 878.5 501.2L900 507L900 601L878.5 601C857 601 814 601 771.2 601C728.3 601 685.7 601 642.8 601C600 601 557 601 514.2 601C471.3 601 428.7 601 385.8 601C343 601 300 601 257.2 601C214.3 601 171.7 601 128.8 601C86 601 43 601 21.5 601L0 601Z" fill="#154e78"></path><path d="M0 492L21.5 493.2C43 494.3 86 496.7 128.8 496C171.7 495.3 214.3 491.7 257.2 497.8C300 504 343 520 385.8 519.3C428.7 518.7 471.3 501.3 514.2 495.5C557 489.7 600 495.3 642.8 499C685.7 502.7 728.3 504.3 771.2 503.5C814 502.7 857 499.3 878.5 497.7L900 496L900 601L878.5 601C857 601 814 601 771.2 601C728.3 601 685.7 601 642.8 601C600 601 557 601 514.2 601C471.3 601 428.7 601 385.8 601C343 601 300 601 257.2 601C214.3 601 171.7 601 128.8 601C86 601 43 601 21.5 601L0 601Z" fill="#246faa"></path><path d="M0 567L21.5 562.7C43 558.3 86 549.7 128.8 545C171.7 540.3 214.3 539.7 257.2 542.8C300 546 343 553 385.8 554.8C428.7 556.7 471.3 553.3 514.2 551.5C557 549.7 600 549.3 642.8 546.8C685.7 544.3 728.3 539.7 771.2 540.2C814 540.7 857 546.3 878.5 549.2L900 552L900 601L878.5 601C857 601 814 601 771.2 601C728.3 601 685.7 601 642.8 601C600 601 557 601 514.2 601C471.3 601 428.7 601 385.8 601C343 601 300 601 257.2 601C214.3 601 171.7 601 128.8 601C86 601 43 601 21.5 601L0 601Z" fill="#3592de"></path></svg>