<svg id="visual" viewBox="0 0 900 600" width="900" height="600" xmlns="http://www.w3.org/2000/svg" xmlns:xlink="http://www.w3.org/1999/xlink" version="1.1"><rect x="0" y="0" width="900" height="600" fill="#dbdbdb"></rect><path d="M0 101L37.5 94.8C75 88.7 150 76.3 225 101.8C300 127.3 375 190.7 450 190.5C525 190.3 600 126.7 675 115.2C750 103.7 825 144.3 862.5 164.7L900 185L900 0L862.5 0C825 0 750 0 675 0C600 0 525 0 450 0C375 0 300 0 225 0C150 0 75 0 37.5 0L0 0Z" fill="#f2f2f2" stroke-linecap="round" stroke-linejoin="miter"></path></svg>